<?xml version="1.0" encoding="UTF-8" standalone="no"?>
<!DOCTYPE svg PUBLIC "-//W3C//DTD SVG 1.1//EN" "http://www.w3.org/Graphics/SVG/1.1/DTD/svg11.dtd">
<svg width="100%" height="100%" viewBox="0 0 1024 1024" version="1.1" xmlns="http://www.w3.org/2000/svg" xmlns:xlink="http://www.w3.org/1999/xlink" xml:space="preserve" xmlns:serif="http://www.serif.com/" style="fill-rule:evenodd;clip-rule:evenodd;stroke-linejoin:round;stroke-miterlimit:2;">
    <g transform="matrix(22.973245,0,0,25.398722,-13392.402368,-34331.549687)">
        <clipPath id="_clip1">
            <path d="M605.507,1390.56C602.597,1390.56 600.063,1390.112 597.905,1389.218C595.748,1388.323 594.067,1386.998 592.862,1385.244C591.658,1383.489 591.017,1381.322 590.941,1378.742L598.193,1378.742C598.288,1379.969 598.653,1380.993 599.288,1381.814C599.923,1382.635 600.771,1383.25 601.831,1383.66C602.892,1384.069 604.091,1384.273 605.428,1384.273C606.755,1384.273 607.914,1384.08 608.903,1383.692C609.893,1383.304 610.662,1382.761 611.212,1382.061C611.761,1381.361 612.036,1380.553 612.036,1379.636C612.036,1378.798 611.79,1378.099 611.298,1377.538C610.806,1376.977 610.094,1376.496 609.161,1376.094C608.229,1375.692 607.099,1375.334 605.77,1375.02L601.771,1374.025C598.692,1373.274 596.279,1372.097 594.533,1370.494C592.787,1368.891 591.914,1366.766 591.914,1364.12C591.914,1361.928 592.507,1360.011 593.692,1358.367C594.878,1356.723 596.501,1355.446 598.56,1354.533C600.62,1353.621 602.966,1353.165 605.6,1353.165C608.292,1353.165 610.638,1353.626 612.64,1354.547C614.642,1355.468 616.202,1356.745 617.321,1358.377C618.44,1360.009 619.019,1361.89 619.057,1364.019L611.853,1364.019C611.712,1362.562 611.087,1361.432 609.98,1360.631C608.872,1359.83 607.39,1359.429 605.533,1359.429C604.269,1359.429 603.19,1359.61 602.296,1359.974C601.402,1360.337 600.721,1360.837 600.254,1361.473C599.788,1362.11 599.555,1362.835 599.555,1363.649C599.555,1364.541 599.826,1365.281 600.37,1365.87C600.913,1366.458 601.629,1366.937 602.518,1367.307C603.407,1367.677 604.361,1367.984 605.381,1368.228L608.663,1369.031C610.193,1369.379 611.618,1369.848 612.939,1370.435C614.26,1371.023 615.415,1371.743 616.406,1372.597C617.397,1373.45 618.168,1374.461 618.719,1375.629C619.27,1376.797 619.546,1378.144 619.546,1379.67C619.546,1381.875 618.989,1383.795 617.876,1385.43C616.764,1387.065 615.161,1388.328 613.069,1389.221C610.977,1390.113 608.456,1390.56 605.507,1390.56Z" clip-rule="nonzero"/>
        </clipPath>
        <g clip-path="url(#_clip1)">
            <g transform="matrix(50,0,0,50,588.873658,1390.03022)">
                <path d="M0.333,0.011C0.274,0.011 0.224,0.002 0.181,-0.016C0.137,-0.034 0.104,-0.061 0.08,-0.096C0.056,-0.131 0.043,-0.174 0.041,-0.226L0.186,-0.226C0.188,-0.201 0.196,-0.181 0.208,-0.164C0.221,-0.148 0.238,-0.136 0.259,-0.127C0.28,-0.119 0.304,-0.115 0.331,-0.115C0.358,-0.115 0.381,-0.119 0.401,-0.127C0.42,-0.135 0.436,-0.145 0.447,-0.159C0.458,-0.173 0.463,-0.19 0.463,-0.208C0.463,-0.225 0.458,-0.239 0.448,-0.25C0.439,-0.261 0.424,-0.271 0.406,-0.279C0.387,-0.287 0.364,-0.294 0.338,-0.3L0.258,-0.32C0.196,-0.335 0.148,-0.359 0.113,-0.391C0.078,-0.423 0.061,-0.465 0.061,-0.518C0.061,-0.562 0.073,-0.6 0.096,-0.633C0.12,-0.666 0.153,-0.692 0.194,-0.71C0.235,-0.728 0.282,-0.737 0.335,-0.737C0.388,-0.737 0.435,-0.728 0.475,-0.71C0.515,-0.691 0.547,-0.666 0.569,-0.633C0.591,-0.6 0.603,-0.563 0.604,-0.52L0.46,-0.52C0.457,-0.549 0.444,-0.572 0.422,-0.588C0.4,-0.604 0.37,-0.612 0.333,-0.612C0.308,-0.612 0.286,-0.608 0.268,-0.601C0.251,-0.594 0.237,-0.584 0.228,-0.571C0.218,-0.558 0.214,-0.544 0.214,-0.528C0.214,-0.51 0.219,-0.495 0.23,-0.483C0.241,-0.471 0.255,-0.462 0.273,-0.454C0.291,-0.447 0.31,-0.441 0.33,-0.436L0.396,-0.42C0.426,-0.413 0.455,-0.404 0.481,-0.392C0.508,-0.38 0.531,-0.366 0.551,-0.349C0.57,-0.332 0.586,-0.311 0.597,-0.288C0.608,-0.265 0.613,-0.238 0.613,-0.207C0.613,-0.163 0.602,-0.125 0.58,-0.092C0.558,-0.059 0.526,-0.034 0.484,-0.016C0.442,0.002 0.392,0.011 0.333,0.011Z" style="fill:white;fill-rule:nonzero;"/>
            </g>
            <g transform="matrix(50,0,0,50,621.612916,1390.03022)">
            </g>
            <g transform="matrix(0.08558,0,0,0.08558,499.233046,1231.455505)">
                <rect x="933.688" y="1615.544" width="580.564" height="373.395" style="fill:rgb(220,20,60);"/>
            </g>
        </g>
        <g transform="matrix(50,0,0,50,588.873658,1390.03022)">
            <path d="M0.333,0.011C0.274,0.011 0.224,0.002 0.181,-0.016C0.137,-0.034 0.104,-0.061 0.08,-0.096C0.056,-0.131 0.043,-0.174 0.041,-0.226L0.186,-0.226C0.188,-0.201 0.196,-0.181 0.208,-0.164C0.221,-0.148 0.238,-0.136 0.259,-0.127C0.28,-0.119 0.304,-0.115 0.331,-0.115C0.358,-0.115 0.381,-0.119 0.401,-0.127C0.42,-0.135 0.436,-0.145 0.447,-0.159C0.458,-0.173 0.463,-0.19 0.463,-0.208C0.463,-0.225 0.458,-0.239 0.448,-0.25C0.439,-0.261 0.424,-0.271 0.406,-0.279C0.387,-0.287 0.364,-0.294 0.338,-0.3L0.258,-0.32C0.196,-0.335 0.148,-0.359 0.113,-0.391C0.078,-0.423 0.061,-0.465 0.061,-0.518C0.061,-0.562 0.073,-0.6 0.096,-0.633C0.12,-0.666 0.153,-0.692 0.194,-0.71C0.235,-0.728 0.282,-0.737 0.335,-0.737C0.388,-0.737 0.435,-0.728 0.475,-0.71C0.515,-0.691 0.547,-0.666 0.569,-0.633C0.591,-0.6 0.603,-0.563 0.604,-0.52L0.46,-0.52C0.457,-0.549 0.444,-0.572 0.422,-0.588C0.4,-0.604 0.37,-0.612 0.333,-0.612C0.308,-0.612 0.286,-0.608 0.268,-0.601C0.251,-0.594 0.237,-0.584 0.228,-0.571C0.218,-0.558 0.214,-0.544 0.214,-0.528C0.214,-0.51 0.219,-0.495 0.23,-0.483C0.241,-0.471 0.255,-0.462 0.273,-0.454C0.291,-0.447 0.31,-0.441 0.33,-0.436L0.396,-0.42C0.426,-0.413 0.455,-0.404 0.481,-0.392C0.508,-0.38 0.531,-0.366 0.551,-0.349C0.57,-0.332 0.586,-0.311 0.597,-0.288C0.608,-0.265 0.613,-0.238 0.613,-0.207C0.613,-0.163 0.602,-0.125 0.58,-0.092C0.558,-0.059 0.526,-0.034 0.484,-0.016C0.442,0.002 0.392,0.011 0.333,0.011Z" style="fill:none;fill-rule:nonzero;stroke:rgb(145,0,26);stroke-width:0.02px;"/>
        </g>
        <g transform="matrix(50,0,0,50,621.612916,1390.03022)">
        </g>
    </g>
</svg>
